<?xml version="1.0" encoding="us-ascii" standalone="no"?><svg xmlns="http://www.w3.org/2000/svg" xmlns:xlink="http://www.w3.org/1999/xlink" contentStyleType="text/css" height="312px" preserveAspectRatio="none" style="width:580px;height:312px;background:#FFFFFF;" version="1.1" viewBox="0 0 580 312" width="580px" zoomAndPan="magnify"><defs/><g><!--class Address--><g id="elem_Address"><rect fill="#F1F1F1" height="48" id="Address" rx="2.5" ry="2.5" style="stroke:#181818;stroke-width:0.5;" width="89" x="66.8947" y="132"/><ellipse cx="81.8947" cy="148" fill="#ADD1B2" rx="11" ry="11" style="stroke:#181818;stroke-width:1.0;"/><path d="M84.2385,143.6719 C83.301,143.2344 82.7072,143.0938 81.8322,143.0938 C79.2072,143.0938 77.2072,145.1719 77.2072,147.8906 L77.2072,149.0156 C77.2072,151.5938 79.3166,153.4844 82.2072,153.4844 C83.426,153.4844 84.5822,153.1875 85.3322,152.6406 C85.9103,152.2344 86.2385,151.7813 86.2385,151.3906 C86.2385,150.9375 85.8478,150.5469 85.3791,150.5469 C85.1603,150.5469 84.9572,150.625 84.7697,150.8125 C84.3166,151.2969 84.3166,151.2969 84.1291,151.3906 C83.7072,151.6563 83.0197,151.7813 82.2541,151.7813 C80.2072,151.7813 78.9103,150.6875 78.9103,148.9844 L78.9103,147.8906 C78.9103,146.1094 80.1603,144.7969 81.8947,144.7969 C82.4728,144.7969 83.0822,144.9531 83.551,145.2031 C84.0353,145.4844 84.2072,145.7031 84.301,146.1094 C84.3635,146.5156 84.3947,146.6406 84.5353,146.7656 C84.676,146.9063 84.9103,147.0156 85.1291,147.0156 C85.3947,147.0156 85.6603,146.875 85.8322,146.6563 C85.9416,146.5 85.9728,146.3125 85.9728,145.8906 L85.9728,144.4688 C85.9728,144.0313 85.9572,143.9063 85.8635,143.75 C85.7072,143.4844 85.426,143.3438 85.1291,143.3438 C84.8322,143.3438 84.6291,143.4375 84.4103,143.75 L84.2385,143.6719 Z " fill="#000000"/><text fill="#000000" font-family="sans-serif" font-size="14" lengthAdjust="spacing" textLength="57" x="95.8947" y="152.8467">Address</text><line style="stroke:#181818;stroke-width:0.5;" x1="67.8947" x2="154.8947" y1="164" y2="164"/><line style="stroke:#181818;stroke-width:0.5;" x1="67.8947" x2="154.8947" y1="172" y2="172"/></g><!--class String--><g id="elem_String"><rect fill="#F1F1F1" height="48" id="String" rx="2.5" ry="2.5" style="stroke:#181818;stroke-width:0.5;" width="76" x="96.3947" y="257"/><ellipse cx="111.3947" cy="273" fill="#ADD1B2" rx="11" ry="11" style="stroke:#181818;stroke-width:1.0;"/><path d="M113.7385,268.6719 C112.801,268.2344 112.2072,268.0938 111.3322,268.0938 C108.7072,268.0938 106.7072,270.1719 106.7072,272.8906 L106.7072,274.0156 C106.7072,276.5938 108.8166,278.4844 111.7072,278.4844 C112.926,278.4844 114.0822,278.1875 114.8322,277.6406 C115.4103,277.2344 115.7385,276.7813 115.7385,276.3906 C115.7385,275.9375 115.3478,275.5469 114.8791,275.5469 C114.6603,275.5469 114.4572,275.625 114.2697,275.8125 C113.8166,276.2969 113.8166,276.2969 113.6291,276.3906 C113.2072,276.6563 112.5197,276.7813 111.7541,276.7813 C109.7072,276.7813 108.4103,275.6875 108.4103,273.9844 L108.4103,272.8906 C108.4103,271.1094 109.6603,269.7969 111.3947,269.7969 C111.9728,269.7969 112.5822,269.9531 113.051,270.2031 C113.5353,270.4844 113.7072,270.7031 113.801,271.1094 C113.8635,271.5156 113.8947,271.6406 114.0353,271.7656 C114.176,271.9063 114.4103,272.0156 114.6291,272.0156 C114.8947,272.0156 115.1603,271.875 115.3322,271.6563 C115.4416,271.5 115.4728,271.3125 115.4728,270.8906 L115.4728,269.4688 C115.4728,269.0313 115.4572,268.9063 115.3635,268.75 C115.2072,268.4844 114.926,268.3438 114.6291,268.3438 C114.3322,268.3438 114.1291,268.4375 113.9103,268.75 L113.7385,268.6719 Z " fill="#000000"/><text fill="#000000" font-family="sans-serif" font-size="14" lengthAdjust="spacing" textLength="44" x="125.3947" y="277.8467">String</text><line style="stroke:#181818;stroke-width:0.5;" x1="97.3947" x2="171.3947" y1="289" y2="289"/><line style="stroke:#181818;stroke-width:0.5;" x1="97.3947" x2="171.3947" y1="297" y2="297"/></g><!--class Person--><g id="elem_Person"><rect fill="#F1F1F1" height="48" id="Person" rx="2.5" ry="2.5" style="stroke:#181818;stroke-width:0.5;" width="81" x="271.8949" y="7"/><ellipse cx="286.8949" cy="23" fill="#ADD1B2" rx="11" ry="11" style="stroke:#181818;stroke-width:1.0;"/><path d="M289.2387,18.6719 C288.3012,18.2344 287.7074,18.0938 286.8324,18.0938 C284.2074,18.0938 282.2074,20.1719 282.2074,22.8906 L282.2074,24.0156 C282.2074,26.5938 284.3168,28.4844 287.2074,28.4844 C288.4262,28.4844 289.5824,28.1875 290.3324,27.6406 C290.9105,27.2344 291.2387,26.7813 291.2387,26.3906 C291.2387,25.9375 290.848,25.5469 290.3793,25.5469 C290.1605,25.5469 289.9574,25.625 289.7699,25.8125 C289.3168,26.2969 289.3168,26.2969 289.1293,26.3906 C288.7074,26.6563 288.0199,26.7813 287.2543,26.7813 C285.2074,26.7813 283.9105,25.6875 283.9105,23.9844 L283.9105,22.8906 C283.9105,21.1094 285.1605,19.7969 286.8949,19.7969 C287.473,19.7969 288.0824,19.9531 288.5512,20.2031 C289.0355,20.4844 289.2074,20.7031 289.3012,21.1094 C289.3637,21.5156 289.3949,21.6406 289.5355,21.7656 C289.6762,21.9063 289.9105,22.0156 290.1293,22.0156 C290.3949,22.0156 290.6605,21.875 290.8324,21.6563 C290.9418,21.5 290.973,21.3125 290.973,20.8906 L290.973,19.4688 C290.973,19.0313 290.9574,18.9063 290.8637,18.75 C290.7074,18.4844 290.4262,18.3438 290.1293,18.3438 C289.8324,18.3438 289.6293,18.4375 289.4105,18.75 L289.2387,18.6719 Z " fill="#000000"/><text fill="#000000" font-family="sans-serif" font-size="14" lengthAdjust="spacing" textLength="49" x="300.8949" y="27.8467">Person</text><line style="stroke:#181818;stroke-width:0.5;" x1="272.8949" x2="351.8949" y1="39" y2="39"/><line style="stroke:#181818;stroke-width:0.5;" x1="272.8949" x2="351.8949" y1="47" y2="47"/></g><!--class Integer--><g id="elem_Integer"><rect fill="#F1F1F1" height="48" id="Integer" rx="2.5" ry="2.5" style="stroke:#181818;stroke-width:0.5;" width="85" x="328.8949" y="132"/><ellipse cx="343.8949" cy="148" fill="#ADD1B2" rx="11" ry="11" style="stroke:#181818;stroke-width:1.0;"/><path d="M346.2387,143.6719 C345.3012,143.2344 344.7074,143.0938 343.8324,143.0938 C341.2074,143.0938 339.2074,145.1719 339.2074,147.8906 L339.2074,149.0156 C339.2074,151.5938 341.3168,153.4844 344.2074,153.4844 C345.4262,153.4844 346.5824,153.1875 347.3324,152.6406 C347.9105,152.2344 348.2387,151.7813 348.2387,151.3906 C348.2387,150.9375 347.848,150.5469 347.3793,150.5469 C347.1605,150.5469 346.9574,150.625 346.7699,150.8125 C346.3168,151.2969 346.3168,151.2969 346.1293,151.3906 C345.7074,151.6563 345.0199,151.7813 344.2543,151.7813 C342.2074,151.7813 340.9105,150.6875 340.9105,148.9844 L340.9105,147.8906 C340.9105,146.1094 342.1605,144.7969 343.8949,144.7969 C344.473,144.7969 345.0824,144.9531 345.5512,145.2031 C346.0355,145.4844 346.2074,145.7031 346.3012,146.1094 C346.3637,146.5156 346.3949,146.6406 346.5355,146.7656 C346.6762,146.9063 346.9105,147.0156 347.1293,147.0156 C347.3949,147.0156 347.6605,146.875 347.8324,146.6563 C347.9418,146.5 347.973,146.3125 347.973,145.8906 L347.973,144.4688 C347.973,144.0313 347.9574,143.9063 347.8637,143.75 C347.7074,143.4844 347.4262,143.3438 347.1293,143.3438 C346.8324,143.3438 346.6293,143.4375 346.4105,143.75 L346.2387,143.6719 Z " fill="#000000"/><text fill="#000000" font-family="sans-serif" font-size="14" lengthAdjust="spacing" textLength="53" x="357.8949" y="152.8467">Integer</text><line style="stroke:#181818;stroke-width:0.5;" x1="329.8949" x2="412.8949" y1="164" y2="164"/><line style="stroke:#181818;stroke-width:0.5;" x1="329.8949" x2="412.8949" y1="172" y2="172"/></g><!--class List<String>--><g id="elem_List&lt;String&gt;"><rect fill="#F1F1F1" height="48" id="List&lt;String&gt;" rx="2.5" ry="2.5" style="stroke:#181818;stroke-width:0.5;" width="124" x="449.3949" y="132"/><ellipse cx="464.3949" cy="148" fill="#ADD1B2" rx="11" ry="11" style="stroke:#181818;stroke-width:1.0;"/><path d="M466.7387,143.6719 C465.8012,143.2344 465.2074,143.0938 464.3324,143.0938 C461.7074,143.0938 459.7074,145.1719 459.7074,147.8906 L459.7074,149.0156 C459.7074,151.5938 461.8168,153.4844 464.7074,153.4844 C465.9262,153.4844 467.0824,153.1875 467.8324,152.6406 C468.4105,152.2344 468.7387,151.7813 468.7387,151.3906 C468.7387,150.9375 468.348,150.5469 467.8793,150.5469 C467.6605,150.5469 467.4574,150.625 467.2699,150.8125 C466.8168,151.2969 466.8168,151.2969 466.6293,151.3906 C466.2074,151.6563 465.5199,151.7813 464.7543,151.7813 C462.7074,151.7813 461.4105,150.6875 461.4105,148.9844 L461.4105,147.8906 C461.4105,146.1094 462.6605,144.7969 464.3949,144.7969 C464.973,144.7969 465.5824,144.9531 466.0512,145.2031 C466.5355,145.4844 466.7074,145.7031 466.8012,146.1094 C466.8637,146.5156 466.8949,146.6406 467.0355,146.7656 C467.1762,146.9063 467.4105,147.0156 467.6293,147.0156 C467.8949,147.0156 468.1605,146.875 468.3324,146.6563 C468.4418,146.5 468.473,146.3125 468.473,145.8906 L468.473,144.4688 C468.473,144.0313 468.4574,143.9063 468.3637,143.75 C468.2074,143.4844 467.9262,143.3438 467.6293,143.3438 C467.3324,143.3438 467.1293,143.4375 466.9105,143.75 L466.7387,143.6719 Z " fill="#000000"/><text fill="#000000" font-family="sans-serif" font-size="14" lengthAdjust="spacing" textLength="92" x="478.3949" y="152.8467">List&lt;String&gt;</text><line style="stroke:#181818;stroke-width:0.5;" x1="450.3949" x2="572.3949" y1="164" y2="164"/><line style="stroke:#181818;stroke-width:0.5;" x1="450.3949" x2="572.3949" y1="172" y2="172"/></g><!--link Address to String--><g id="link_Address_String"><path codeLine="1" d="M66.6241,171.405 C36.918,183.536 6,202.776 21.3947,227 C37.782,252.7864 64.5976,264.7086 90.5935,271.5972 " fill="none" id="Address-to-String" style="stroke:#181818;stroke-width:1.0;"/><polygon fill="#181818" points="96.3933,273.1341,88.7181,266.9622,91.5601,271.8534,86.669,274.6953,96.3933,273.1341" style="stroke:#181818;stroke-width:1.0;"/><text fill="#000000" font-family="sans-serif" font-size="13" lengthAdjust="spacing" textLength="23" x="22.3947" y="223.0669">city</text><text fill="#000000" font-family="sans-serif" font-size="13" lengthAdjust="spacing" textLength="8" x="80.3868" y="267.2845">1</text></g><!--link Address to String--><g id="link_Address_String"><path codeLine="2" d="M94.62,180.122 C86.8013,193.814 80.4065,211.4674 86.3947,227 C90.6817,238.1198 94.3501,244.0228 102.4527,252.4704 " fill="none" id="Address-to-String-1" style="stroke:#181818;stroke-width:1.0;"/><polygon fill="#181818" points="106.606,256.8005,103.2628,247.5364,103.1449,253.192,97.4893,253.0742,106.606,256.8005" style="stroke:#181818;stroke-width:1.0;"/><text fill="#000000" font-family="sans-serif" font-size="13" lengthAdjust="spacing" textLength="49" x="87.3947" y="223.0669">zipcode</text><text fill="#000000" font-family="sans-serif" font-size="13" lengthAdjust="spacing" textLength="8" x="90.4601" y="245.7614">1</text></g><!--link Address to String--><g id="link_Address_String"><path codeLine="3" d="M127.9199,180.141 C133.3269,189.039 138.6479,199.571 141.3949,210 C145.4389,225.3538 144.7692,237.2861 141.9512,251.0996 " fill="none" id="Address-to-String-2" style="stroke:#181818;stroke-width:1.0;"/><polygon fill="#181818" points="140.7519,256.9785,146.4702,248.9597,141.7513,252.0794,138.6316,247.3606,140.7519,256.9785" style="stroke:#181818;stroke-width:1.0;"/><text fill="#000000" font-family="sans-serif" font-size="13" lengthAdjust="spacing" textLength="49" x="145.3949" y="223.0669">country</text><text fill="#000000" font-family="sans-serif" font-size="13" lengthAdjust="spacing" textLength="8" x="133.3559" y="245.985">1</text></g><!--link Person to String--><g id="link_Person_String"><path codeLine="4" d="M303.1139,55.213 C286.9269,93.793 250.6939,172.276 203.3949,227 C193.8139,238.0852 186.4086,244.8082 174.9166,253.3189 " fill="none" id="Person-to-String" style="stroke:#181818;stroke-width:1.0;"/><polygon fill="#181818" points="170.0949,256.8898,179.7081,254.748,174.113,253.9141,174.9469,248.319,170.0949,256.8898" style="stroke:#181818;stroke-width:1.0;"/><text fill="#000000" font-family="sans-serif" font-size="13" lengthAdjust="spacing" textLength="37" x="266.3949" y="160.5669">name</text><text fill="#000000" font-family="sans-serif" font-size="13" lengthAdjust="spacing" textLength="8" x="170.2181" y="245.8736">1</text></g><!--link Person to Integer--><g id="link_Person_Integer"><path codeLine="5" d="M323.4919,55.135 C334.0409,77.126 347.2199,104.6022 357.7519,126.5582 " fill="none" id="Person-to-Integer" style="stroke:#181818;stroke-width:1.0;"/><polygon fill="#181818" points="360.3469,131.968,360.0609,122.1233,358.1844,127.4598,352.8479,125.5833,360.3469,131.968" style="stroke:#181818;stroke-width:1.0;"/><text fill="#000000" font-family="sans-serif" font-size="13" lengthAdjust="spacing" textLength="24" x="347.3949" y="98.0669">age</text><text fill="#000000" font-family="sans-serif" font-size="13" lengthAdjust="spacing" textLength="8" x="348.4909" y="120.9718">1</text></g><!--link Person to List<String>--><g id="link_Person_List&lt;String&gt;"><path codeLine="6" d="M349.8249,55.135 C385.4029,77.126 433.5061,106.8574 469.0281,128.8134 " fill="none" id="Person-to-List&lt;String&gt;" style="stroke:#181818;stroke-width:1.0;"/><polygon fill="#181818" points="474.1319,131.968,468.5793,123.8336,469.8788,129.3392,464.3732,130.6386,474.1319,131.968" style="stroke:#181818;stroke-width:1.0;"/><text fill="#000000" font-family="sans-serif" font-size="13" lengthAdjust="spacing" textLength="50" x="425.3949" y="98.0669">hobbies</text><text fill="#000000" font-family="sans-serif" font-size="13" lengthAdjust="spacing" textLength="8" x="455.5583" y="120.9718">1</text></g><!--link Person to Address--><g id="link_Person_Address"><path codeLine="7" d="M271.6549,42.373 C243.0789,50.889 204.8699,64.851 175.3949,85 C156.7709,97.731 143.453,112.1605 131.654,127.2155 " fill="none" id="Person-to-Address" style="stroke:#181818;stroke-width:1.0;"/><polygon fill="#181818" points="127.9529,131.938,136.6529,127.3217,131.0372,128.0026,130.3563,122.3869,127.9529,131.938" style="stroke:#181818;stroke-width:1.0;"/><text fill="#000000" font-family="sans-serif" font-size="13" lengthAdjust="spacing" textLength="51" x="176.3949" y="98.0669">address</text><text fill="#000000" font-family="sans-serif" font-size="13" lengthAdjust="spacing" textLength="8" x="123.1709" y="120.9341">1</text></g><!--SRC=[Sqn9AKejBbRGrRLJK39KKWWkAShCIrUmKaZEBAdaKW02HrmggZ8BalDJKl4hIiulpIifWfWKa5fKd9-7gIOlCJSLcmBFl9BKzDGYe8h4TAmAb7moYqji8EROAG7LPUGd9MMc5cDJ2tCXq3082m00]--></g></svg>